<mxfile host="65bd71144e">
    <diagram id="v1ShrlZZmRDrxKBRB3x8" name="Page-1">
        <mxGraphModel dx="1174" dy="781" grid="1" gridSize="10" guides="1" tooltips="1" connect="1" arrows="1" fold="1" page="1" pageScale="1" pageWidth="1169" pageHeight="827" math="0" shadow="0">
            <root>
                <mxCell id="0"/>
                <mxCell id="1" parent="0"/>
                <mxCell id="9" value="global" style="whiteSpace=wrap;html=1;verticalAlign=bottom;align=right;spacingRight=10;spacingBottom=10;" vertex="1" parent="1">
                    <mxGeometry x="560" y="360" width="400" height="260" as="geometry"/>
                </mxCell>
                <mxCell id="4" value="regional" style="whiteSpace=wrap;html=1;verticalAlign=bottom;align=right;spacingRight=10;spacingBottom=10;" vertex="1" parent="1">
                    <mxGeometry x="60" y="270" width="480" height="350" as="geometry"/>
                </mxCell>
                <mxCell id="2" value="foundation" style="whiteSpace=wrap;html=1;align=right;verticalAlign=bottom;dashed=1;dashPattern=1 1;fillColor=#333333;fontColor=#ffffff;strokeColor=#333333;strokeWidth=3;fillStyle=auto;opacity=50;spacingRight=10;spacingBottom=10;" vertex="1" parent="1">
                    <mxGeometry x="220" y="380" width="500" height="280" as="geometry"/>
                </mxCell>
                <mxCell id="7" value="Workspace API" style="rounded=1;whiteSpace=wrap;html=1;" vertex="1" parent="1">
                    <mxGeometry x="240" y="510" width="120" height="60" as="geometry"/>
                </mxCell>
                <mxCell id="8" value="ActivityLog API" style="rounded=1;whiteSpace=wrap;html=1;" vertex="1" parent="1">
                    <mxGeometry x="400" y="290" width="120" height="60" as="geometry"/>
                </mxCell>
                <mxCell id="10" value="Authorization API" style="rounded=1;whiteSpace=wrap;html=1;" vertex="1" parent="1">
                    <mxGeometry x="580" y="400" width="120" height="60" as="geometry"/>
                </mxCell>
                <mxCell id="18" style="edgeStyle=none;html=1;" edge="1" parent="1" source="11" target="12">
                    <mxGeometry relative="1" as="geometry"/>
                </mxCell>
                <mxCell id="19" style="edgeStyle=none;html=1;entryX=0.5;entryY=0;entryDx=0;entryDy=0;" edge="1" parent="1" source="11" target="15">
                    <mxGeometry relative="1" as="geometry"/>
                </mxCell>
                <mxCell id="11" value="Compute API" style="rounded=1;whiteSpace=wrap;html=1;" vertex="1" parent="1">
                    <mxGeometry x="240" y="290" width="120" height="60" as="geometry"/>
                </mxCell>
                <mxCell id="16" style="edgeStyle=none;html=1;" edge="1" parent="1" source="12" target="7">
                    <mxGeometry relative="1" as="geometry"/>
                </mxCell>
                <mxCell id="12" value="Network API" style="rounded=1;whiteSpace=wrap;html=1;" vertex="1" parent="1">
                    <mxGeometry x="240" y="400" width="120" height="60" as="geometry"/>
                </mxCell>
                <mxCell id="13" value="Object Storage API" style="rounded=1;whiteSpace=wrap;html=1;" vertex="1" parent="1">
                    <mxGeometry x="740" y="400" width="120" height="60" as="geometry"/>
                </mxCell>
                <mxCell id="14" value="Regions API" style="rounded=1;whiteSpace=wrap;html=1;" vertex="1" parent="1">
                    <mxGeometry x="580" y="480" width="120" height="60" as="geometry"/>
                </mxCell>
                <mxCell id="17" style="edgeStyle=none;html=1;entryX=0.5;entryY=0;entryDx=0;entryDy=0;" edge="1" parent="1" source="15" target="7">
                    <mxGeometry relative="1" as="geometry">
                        <mxPoint x="300" y="490" as="targetPoint"/>
                    </mxGeometry>
                </mxCell>
                <mxCell id="15" value="Storage API" style="rounded=1;whiteSpace=wrap;html=1;" vertex="1" parent="1">
                    <mxGeometry x="400" y="400" width="120" height="60" as="geometry"/>
                </mxCell>
                <mxCell id="21" style="edgeStyle=none;html=1;entryX=0.5;entryY=0;entryDx=0;entryDy=0;" edge="1" parent="1" source="20" target="12">
                    <mxGeometry relative="1" as="geometry"/>
                </mxCell>
                <mxCell id="20" value="Network Loadbalancer API" style="rounded=1;whiteSpace=wrap;html=1;" vertex="1" parent="1">
                    <mxGeometry x="80" y="290" width="120" height="60" as="geometry"/>
                </mxCell>
            </root>
        </mxGraphModel>
    </diagram>
</mxfile>